<svg width="480" height="280" viewBox="0 0 480 280" fill="none" xmlns="http://www.w3.org/2000/svg">
  <defs>
    <linearGradient id="dashGradient" x1="0" y1="0" x2="1" y2="1">
      <stop offset="0" stop-color="#22c55e" />
      <stop offset="1" stop-color="#0ea5e9" />
    </linearGradient>
  </defs>
  <rect x="24" y="24" width="432" height="232" rx="28" fill="#0f172a" />
  <rect x="32" y="40" width="416" height="40" rx="18" fill="#020617" />
  <circle cx="56" cy="60" r="6" fill="#22c55e" />
  <circle cx="76" cy="60" r="6" fill="#eab308" />
  <circle cx="96" cy="60" r="6" fill="#0ea5e9" />
  <rect x="48" y="92" width="176" height="136" rx="20" fill="#020617" />
  <rect x="72" y="116" width="80" height="8" rx="4" fill="#e5e7eb" />
  <rect x="72" y="136" width="96" height="6" rx="3" fill="#9ca3af" />
  <rect x="72" y="152" width="72" height="6" rx="3" fill="#4ade80" />
  <rect x="72" y="168" width="96" height="6" rx="3" fill="#38bdf8" />
  <rect x="248" y="92" width="184" height="64" rx="18" fill="#020617" />
  <path
    d="M268 142C284 128 296 118 320 118C344 118 352 132 372 132C384 132 392 128 404 122"
    stroke="url(#dashGradient)"
    stroke-width="4"
    stroke-linecap="round"
  />
  <circle cx="268" cy="142" r="4" fill="#22c55e" />
  <circle cx="320" cy="118" r="4" fill="#eab308" />
  <circle cx="372" cy="132" r="4" fill="#38bdf8" />
  <rect x="248" y="168" width="184" height="60" rx="18" fill="#020617" />
  <rect x="268" y="184" width="72" height="8" rx="4" fill="#e5e7eb" />
  <rect x="268" y="202" width="116" height="10" rx="5" fill="#22c55e" />
  <rect x="268" y="202" width="56" height="10" rx="5" fill="#4ade80" />
</svg>

