<svg width="640" height="480" viewBox="0 0 640 480" fill="none" xmlns="http://www.w3.org/2000/svg">
  <defs>
    <linearGradient id="heroGradient" x1="0" y1="0" x2="1" y2="1">
      <stop offset="0" stop-color="#22c55e" />
      <stop offset="1" stop-color="#0ea5e9" />
    </linearGradient>
    <linearGradient id="leafGradient" x1="0" y1="0" x2="0" y2="1">
      <stop offset="0" stop-color="#bbf7d0" />
      <stop offset="1" stop-color="#22c55e" />
    </linearGradient>
  </defs>
  <rect x="40" y="40" width="560" height="400" rx="40" fill="url(#heroGradient)" opacity="0.12" />
  <circle cx="180" cy="180" r="80" fill="#ecfdf5" />
  <circle cx="440" cy="180" r="70" fill="#eff6ff" />
  <circle cx="320" cy="280" r="120" fill="#f1f5f9" />
  <path
    d="M320 320c-40 0-72-32-72-72 0-54 40-100 72-116 32 16 72 62 72 116 0 40-32 72-72 72z"
    fill="url(#leafGradient)"
  />
  <path
    d="M320 152c-18 18-56 62-56 108 0 8.8 1.6 17.2 4.6 25.1 20-8.5 40.3-28.6 51.4-44.7 9.6-13.9 17-29.8 20-45.9-6.1-16.4-14.9-30.4-20-42.5z"
    fill="#16a34a"
    opacity="0.4"
  />
  <path
    d="M260 292c24 0 52-10 76-30"
    stroke="#0f766e"
    stroke-width="3"
    stroke-linecap="round"
    opacity="0.6"
  />
  <path
    d="M332 216c10 10 28 22 44 26"
    stroke="#0ea5e9"
    stroke-width="3"
    stroke-linecap="round"
    opacity="0.7"
  />
  <rect
    x="128"
    y="332"
    width="160"
    height="40"
    rx="20"
    fill="#ecfdf5"
    stroke="#bbf7d0"
    stroke-width="2"
  />
  <circle cx="156" cy="352" r="8" fill="#22c55e" />
  <circle cx="184" cy="352" r="8" fill="#a7f3d0" />
  <circle cx="212" cy="352" r="8" fill="#bef264" />
  <rect
    x="352"
    y="332"
    width="160"
    height="40"
    rx="20"
    fill="#eff6ff"
    stroke="#bfdbfe"
    stroke-width="2"
  />
  <path
    d="M380 352h32"
    stroke="#0ea5e9"
    stroke-width="3"
    stroke-linecap="round"
  />
  <path
    d="M424 352h40"
    stroke="#38bdf8"
    stroke-width="3"
    stroke-linecap="round"
    opacity="0.7"
  />
  <circle cx="520" cy="132" r="10" fill="#22c55e" opacity="0.9" />
  <circle cx="120" cy="132" r="8" fill="#0ea5e9" opacity="0.8" />
  <circle cx="540" cy="332" r="6" fill="#eab308" opacity="0.9" />
</svg>

