<svg width="480" height="260" viewBox="0 0 480 260" fill="none" xmlns="http://www.w3.org/2000/svg">
  <rect x="32" y="32" width="416" height="196" rx="24" fill="#f0fdf4" />
  <rect x="52" y="52" width="168" height="156" rx="18" fill="#ecfeff" />
  <rect x="72" y="76" width="120" height="10" rx="5" fill="#0f766e" />
  <rect x="72" y="96" width="96" height="8" rx="4" fill="#22c55e" />
  <rect x="72" y="114" width="104" height="8" rx="4" fill="#38bdf8" />
  <rect x="72" y="150" width="88" height="6" rx="3" fill="#bae6fd" />
  <rect x="224" y="52" width="204" height="60" rx="18" fill="#ecfdf5" />
  <rect x="244" y="70" width="144" height="10" rx="5" fill="#16a34a" />
  <circle cx="408" cy="84" r="14" fill="#fef3c7" />
  <path
    d="M404 84l4 4 8-8"
    stroke="#f59e0b"
    stroke-width="2.5"
    stroke-linecap="round"
    stroke-linejoin="round"
  />
  <rect x="224" y="124" width="204" height="84" rx="22" fill="#ecfeff" />
  <rect x="244" y="142" width="132" height="8" rx="4" fill="#0369a1" />
  <rect x="244" y="160" width="112" height="8" rx="4" fill="#22c55e" />
  <rect x="244" y="178" width="84" height="8" rx="4" fill="#0ea5e9" />
</svg>

